PathFileType	4	(x/y/z)	S09_P20_T28
DataRate	CameraRate	NumFrames	NumMarkers	Units	OrigDataRate	OrigDataStartFrame	OrigNumFrames
240	240	4	51	mm	240	259	414
Frame#	Time	Sternum			R.Acromium			L.Acromium			Top.Head			R.ASIS			L.ASIS			R.PSIS			L.PSIS			R.Great.Tro			L.Great.Tro			R.Iliac.Crest			L.Iliac.Crest			V.Sacral			R.Thigh.Upper.Post			R.Thigh.Lower.Ant			R.Thigh.Lower.Post			R.Thigh.Upper.Ant			R.Knee.Lat			R.Knee.Med			R.Shank.Upper.Post			R.Shank.Lower.Ant			R.Shank.Lower.Post			R.Shank.Upper.Ant			R.Ankle.Lat			R.Ankle.Med			R.Heel.Upper			R.Heel.Med			R.Heel.Lat			R.Toe.Lat			R.Toe.Med			R.Toe.Tip			L.Thigh.Upper.Post			L.Thigh.Lower.Ant			L.Thigh.Lower.Post			L.Thigh.Upper.Ant			L.Knee.Lat			L.Knee.Med			L.Shank.Upper.Post			L.Shank.Lower.Ant			L.Shank.Lower.Post			L.Shank.Upper.Ant			L.Ankle.Lat			L.Ankle.Med			L.Heel.Upper			L.Heel.Med			L.Heel.Lat			L.Toe.Lat			L.Toe.Med			L.Toe.Tip			Cervical.Spine			Back			
		X1	Y1	Z1	X2	Y2	Z2	X3	Y3	Z3	X4	Y4	Z4	X5	Y5	Z5	X6	Y6	Z6	X7	Y7	Z7	X8	Y8	Z8	X9	Y9	Z9	X10	Y10	Z10	X11	Y11	Z11	X12	Y12	Z12	X13	Y13	Z13	X14	Y14	Z14	X15	Y15	Z15	X16	Y16	Z16	X17	Y17	Z17	X18	Y18	Z18	X19	Y19	Z19	X20	Y20	Z20	X21	Y21	Z21	X22	Y22	Z22	X23	Y23	Z23	X24	Y24	Z24	X25	Y25	Z25	X26	Y26	Z26	X27	Y27	Z27	X28	Y28	Z28	X29	Y29	Z29	X30	Y30	Z30	X31	Y31	Z31	X32	Y32	Z32	X33	Y33	Z33	X34	Y34	Z34	X35	Y35	Z35	X36	Y36	Z36	X37	Y37	Z37	X38	Y38	Z38	X39	Y39	Z39	X40	Y40	Z40	X41	Y41	Z41	X42	Y42	Z42	X43	Y43	Z43	X44	Y44	Z44	X45	Y45	Z45	X46	Y46	Z46	X47	Y47	Z47	X48	Y48	Z48	X49	Y49	Z49	X50	Y50	Z50	X51	Y51	Z51	

259	1.075	-4.9775	1165.9	332.74	-118.25	1419.9	474.49	-144.96	1418.8	174.98	-118.9	1728.4	324.63	-69.212	1000	443.53	-63.673	1007.3	197.28	-286.03	1035.4	359.05	-279.57	1031.7	270.89	-167.58	922.53	514.17	-132.66	916.28	128.43	-154.84	1084	484.94	-173.25	1101.1	162.84	-304.21	1000.5	311.36	-228.56	683.36	471.95	-180.3	569.48	432.84	-254.04	597.38	439.92	-163.24	654.11	463.6	-226.72	499.06	418.66	-229.44	497.86	296.69	-365.3	367.46	416.68	-329.07	284.72	402.12	-400.41	300.69	403.89	-301.11	352.01	417.64	-458.99	122.56	376.05	-425.54	126.51	290.64	-529.58	115.45	324.03	-525.52	81.619	296.09	-533.16	85.596	360.57	-381.54	41.284	415.91	-330.14	39.696	311.31	-281.91	44.92	359.14	-121.87	652.82	173.51	-15.679	583.11	171.49	-81.406	572.11	193.18	-54.856	660.52	148.03	-5.1539	506.09	183.07	12.282	524.71	315.84	-9.126	366.17	175.34	81.109	302.03	182.26	16.885	293.5	180.23	54.311	374.85	178.31	116.42	109.56	199.74	136.57	117.72	289.85	69.134	58.562	255.92	88.549	43.447	289.72	79.048	29.429	230.11	239.35	78.819	170.35	270.4	110.14	274.76	309.22	140.27	212.37	-215.16	1474	343.34	-269.49	1208.9	330.41
260	1.0792	0.53433	1165.3	331.96	-112.87	1419.2	473.97	-139.5	1418.5	174.46	-113.65	1727.9	324.34	-63.554	999.44	443.01	-57.874	1007.1	196.8	-280.44	1034.6	358.61	-273.85	1031	270.42	-161.93	921.79	513.67	-126.35	915.89	128.02	-149.17	1083.4	484.51	-167.61	1100.6	162.43	-298.57	999.78	310.93	-222.32	682.42	471.4	-173.75	568.64	432.38	-247.56	596.37	439.38	-156.91	653.33	463.09	-220.24	498.07	418.37	-223.1	496.96	296.37	-360.28	368.06	416.6	-325.18	284.84	401.96	-396.2	301.7	403.86	-296.37	351.77	417.41	-457.34	124.46	376.2	-423.66	127.93	290.75	-527.94	118.25	324.02	-524.31	84.464	295.95	-531.99	88.325	360.45	-381.23	41.583	415.83	-329.74	39.66	311.38	-281.7	44.705	359.2	-115.59	652.45	173.61	-9.3288	582.84	172.01	-75.143	571.78	193.46	-48.478	660.18	148.36	1.0526	505.75	183.59	18.583	524.8	316.14	-3.9719	365.88	175.96	85.632	300.89	183.27	21.344	292.97	180.93	59.532	373.98	179.21	118.76	108.58	200.65	138.5	115.88	291.01	70.267	58.927	256.42	89.273	43.088	290.2	79.595	29.74	230.51	240.98	76.194	171.76	272.2	106.26	276.4	311.78	136.13	214.25	-209.74	1473.5	342.85	-263.96	1208.3	329.85
261	1.0833	6.0647	1164.7	331.18	-107.51	1418.6	473.44	-134.02	1418.1	173.93	-108.4	1727.4	324.04	-57.878	998.93	442.49	-52.053	1006.9	196.34	-274.82	1033.9	358.14	-268.1	1030.3	269.93	-156.24	921.08	513.15	-119.97	915.56	127.59	-143.49	1082.8	484.08	-161.91	1100.2	162.01	-292.91	999.09	310.48	-215.9	681.48	470.85	-166.98	567.8	431.96	-240.87	595.33	438.84	-150.4	652.56	462.6	-213.51	497.07	418.13	-216.53	496.04	296.11	-355.05	368.72	416.57	-321.1	285.01	401.86	-391.79	302.79	403.86	-291.45	351.57	417.22	-455.54	126.48	376.39	-421.61	129.46	290.91	-526.09	121.27	324.03	-522.92	87.539	295.82	-530.67	91.268	360.32	-380.89	41.921	415.74	-329.3	39.62	311.46	-281.5	44.489	359.26	-109.38	652.14	173.67	-3.0793	582.59	172.47	-68.978	571.49	193.68	-42.163	659.89	148.65	7.1767	505.44	184.03	24.703	524.84	316.42	1.1745	365.66	176.48	90.159	299.84	184.2	25.816	292.51	181.53	64.738	373.19	180.04	121.07	107.68	201.46	140.42	114.14	292.05	71.36	59.361	256.84	89.953	42.812	290.6	80.096	30.122	230.83	242.54	73.607	173.04	273.96	102.4	277.89	314.29	131.97	215.96	-204.32	1473	342.34	-258.43	1207.7	329.27
262	1.0875	11.614	1164.3	330.4	-102.16	1418	472.9	-128.53	1417.8	173.4	-103.16	1727.1	323.75	-52.189	998.49	441.97	-46.213	1006.8	195.88	-269.18	1033.2	357.65	-262.31	1029.6	269.4	-150.52	920.4	512.63	-113.54	915.28	127.13	-137.82	1082.2	483.63	-156.14	1099.9	161.56	-287.23	998.43	309.99	-209.31	680.54	470.31	-159.98	566.98	431.58	-233.96	594.28	438.33	-143.71	651.83	462.13	-206.55	496.06	417.95	-209.7	495.1	295.92	-349.61	369.43	416.59	-316.82	285.24	401.84	-387.18	303.96	403.9	-286.32	351.42	417.11	-453.57	128.62	376.62	-419.37	131.1	291.12	-524.03	124.49	324.06	-521.33	90.854	295.68	-529.18	94.434	360.19	-380.52	42.301	415.64	-328.84	39.58	311.55	-281.3	44.273	359.31	-103.24	651.89	173.67	3.0701	582.37	172.86	-62.912	571.25	193.83	-35.915	659.66	148.9	13.221	505.19	184.4	30.634	524.83	316.68	6.3088	365.5	176.9	94.681	298.9	185.04	30.293	292.12	182.03	69.924	372.48	180.78	123.34	106.85	202.17	142.32	112.5	292.98	72.417	59.85	257.17	90.597	42.619	290.91	80.564	30.561	231.07	244.02	71.072	174.18	275.68	98.595	279.23	316.76	127.82	217.51	-198.9	1472.6	341.81	-252.89	1207.2	328.67
